<svg width="39" height="65" viewBox="0 0 39 65" fill="none" xmlns="http://www.w3.org/2000/svg">
<path d="M38.7719 6.0863L14.5693 18.859V20.6272L13.1713 21.3649V64.5696L37.374 51.7968V51.7867L38.7719 51.049V6.0863Z" fill="#F0AE00"/>
<path d="M0.26722 15.3508L13.1714 22.801L13.1713 64.5696L0.26722 57.1193V15.3508Z" fill="#FAFAF9"/>
<path fill-rule="evenodd" clip-rule="evenodd" d="M0.26722 15.3508V57.1193L13.1713 64.5696L13.1714 22.801L10.5112 21.2652V59.962L2.9274 55.5835V16.8867L0.26722 15.3508Z" fill="#F0AE00"/>
<path d="M23.6675 1.84185C26.6059 0.145488 31.37 0.145489 34.3084 1.84186L36.5711 3.14814C39.5095 4.84451 39.5095 7.59486 36.5711 9.29123L13.1702 22.8007L0.266602 15.3514L23.6675 1.84185Z" fill="#FAFAF9"/>
<path fill-rule="evenodd" clip-rule="evenodd" d="M0.266602 15.3514L2.92683 16.8871L26.3277 3.37763C27.7969 2.52944 30.179 2.52944 31.6482 3.37763L33.9109 4.68391C35.3801 5.53209 35.3801 6.90727 33.9109 7.75546L10.51 21.265L13.1702 22.8007L36.5711 9.29123C39.5095 7.59486 39.5095 4.84451 36.5711 3.14814L34.3084 1.84186C31.37 0.145489 26.6059 0.145488 23.6675 1.84185L0.266602 15.3514Z" fill="#F0AE00"/>
<path d="M10.4932 39.2827L25.4598 30.3785C28.051 28.8369 30.1517 30.0314 30.1517 33.0466C30.1517 36.0617 28.051 39.7558 25.4598 41.2974L10.4932 50.2016V39.2827Z" fill="#FAFAF9"/>
</svg>
