<svg width="37" height="61" viewBox="0 0 37 61" fill="none" xmlns="http://www.w3.org/2000/svg">
<path d="M26.0102 23.9675V42.106L24.7382 42.7743V42.7835L22.7158 43.846V25.6511L24.7382 24.5885V24.6358L26.0102 23.9675Z" fill="#1C1917" stroke="#1C1917" stroke-width="20"/>
<path d="M0.105225 12.2979L12.7156 19.5785V60.3963L0.105225 53.1157V12.2979Z" fill="white"/>
<path fill-rule="evenodd" clip-rule="evenodd" d="M0.105225 12.2979V53.1157L12.7156 60.3963V57.3945L2.70485 51.6148V13.7988L0.105225 12.2979Z" fill="#1C1917"/>
<path d="M18.5678 1.63962C21.4393 -0.0181361 26.095 -0.018137 28.9665 1.63961L33.7749 4.41554C36.6464 6.0733 36.6464 8.76104 33.7749 10.4188L15.3118 21.0777L0.104736 12.2985L18.5678 1.63962Z" fill="white"/>
<path fill-rule="evenodd" clip-rule="evenodd" d="M0.104736 12.2985L2.70441 13.7993L21.1674 3.14043C22.6032 2.31155 24.931 2.31155 26.3668 3.14043L31.1752 5.91636C32.611 6.74523 32.611 8.0891 31.1752 8.91798L12.7122 19.5768L15.3118 21.0777L33.7749 10.4188C36.6464 8.76104 36.6464 6.0733 33.7749 4.41554L28.9665 1.63961C26.095 -0.018137 21.4393 -0.0181361 18.5678 1.63962L0.104736 12.2985Z" fill="#1C1917"/>
<path d="M10.0984 35.0423L25.3741 25.9542C27.5475 24.6612 29.3094 25.6631 29.3094 28.192C29.3094 30.721 27.5475 33.8194 25.3741 35.1124L10.0984 44.2005V35.0423Z" fill="white"/>
</svg>
