<svg width="75" height="73" viewBox="0 0 75 73" fill="none" xmlns="http://www.w3.org/2000/svg">
<path d="M38.7713 14.0863L14.5687 26.859V28.6272L13.1707 29.3649V72.5696L37.3733 59.7968V59.7867L38.7713 59.049V14.0863Z" fill="#BD7100"/>
<path d="M0.266602 23.3508L13.1708 30.801L13.1707 72.5696L0.266602 65.1193V23.3508Z" fill="#FAFAF9"/>
<path fill-rule="evenodd" clip-rule="evenodd" d="M0.266602 23.3508V65.1193L13.1707 72.5696L13.1708 30.801L10.5106 29.2652V67.962L2.92678 63.5835V24.8867L0.266602 23.3508Z" fill="#BD7100"/>
<path d="M23.6669 9.84185C26.6053 8.14549 31.3694 8.14549 34.3078 9.84186L36.5705 11.1481C39.5089 12.8445 39.5089 15.5949 36.5705 17.2912L13.1696 30.8007L0.266602 23.3508L23.6669 9.84185Z" fill="#FAFAF9"/>
<path fill-rule="evenodd" clip-rule="evenodd" d="M0.266602 23.3508L2.92678 24.8867L26.3271 11.3776C27.7963 10.5294 30.1783 10.5294 31.6476 11.3776L33.9103 12.6839C35.3795 13.5321 35.3795 14.9073 33.9103 15.7555L10.5094 29.265L13.1696 30.8007L36.5705 17.2912C39.5089 15.5949 39.5089 12.8445 36.5705 11.1481L34.3078 9.84186C31.3694 8.14549 26.6053 8.14549 23.6669 9.84185L0.266602 23.3508Z" fill="#BD7100"/>
<path d="M10.4926 47.2827L25.4592 38.3785C28.0504 36.8369 30.1511 38.0314 30.1511 41.0466C30.1511 44.0617 28.0504 47.7558 25.4592 49.2974L10.4926 58.2016V47.2827Z" fill="#FAFAF9"/>
<path d="M51.4624 14.2416V9.10558H60.4864V0.801579H65.7184V9.10558H74.6944V14.2416H65.7184V22.5456H60.4864V14.2416H51.4624Z" fill="#BD7100"/>
</svg>
