<svg width="320" height="150" viewBox="0 0 320 150" fill="none" xmlns="http://www.w3.org/2000/svg">
<rect width="320" height="150" fill="#F5F5F4"/>
<path fill-rule="evenodd" clip-rule="evenodd" d="M142.048 56.9016V97.7194L154.658 105V101.998L144.647 96.2185V58.4025L142.048 56.9016Z" fill="#D6D3D1"/>
<path fill-rule="evenodd" clip-rule="evenodd" d="M142.047 56.9022L144.647 58.403L163.11 47.7441C164.545 46.9152 166.873 46.9152 168.309 47.7441L173.117 50.5201C174.553 51.3489 174.553 52.6928 173.117 53.5217L154.654 64.1805L157.254 65.6813L175.717 55.0225C178.589 53.3647 178.589 50.677 175.717 49.0192L170.909 46.2433C168.037 44.5856 163.381 44.5856 160.51 46.2433L142.047 56.9022Z" fill="#D6D3D1"/>
<mask id="path-3-inside-1_660_5382" fill="white">
<path fill-rule="evenodd" clip-rule="evenodd" d="M176.681 93.4294V93.4202L177.953 92.7519V52.0209L176.681 52.6892V52.642L154.658 64.2126V78.0888L167.316 70.558C169.49 69.2649 171.252 70.2668 171.252 72.7958C171.252 75.3248 169.49 78.4231 167.316 79.7162L154.658 87.247V105L176.681 93.4294Z"/>
</mask>
<path fill-rule="evenodd" clip-rule="evenodd" d="M176.681 93.4294V93.4202L177.953 92.7519V52.0209L176.681 52.6892V52.642L154.658 64.2126V78.0888L167.316 70.558C169.49 69.2649 171.252 70.2668 171.252 72.7958C171.252 75.3248 169.49 78.4231 167.316 79.7162L154.658 87.247V105L176.681 93.4294Z" fill="#D6D3D1"/>
<path d="M176.681 93.4202L167.378 75.7152L156.681 81.3358V93.4202H176.681ZM176.681 93.4294L185.983 111.134L196.681 105.514V93.4294H176.681ZM177.953 92.7519L187.255 110.457L197.953 104.836V92.7519H177.953ZM177.953 52.0209H197.953V18.9203L168.65 34.3159L177.953 52.0209ZM176.681 52.6892H156.681V85.7898L185.983 70.3942L176.681 52.6892ZM176.681 52.642H196.681V19.5414L167.378 34.9369L176.681 52.642ZM154.658 64.2126L145.356 46.5076L134.658 52.1282V64.2126H154.658ZM154.658 78.0888H134.658V113.259L164.884 95.2769L154.658 78.0888ZM167.316 70.558L177.542 87.7461L177.542 87.7461L167.316 70.558ZM167.316 79.7162L177.542 96.9043L177.542 96.9043L167.316 79.7162ZM154.658 87.247L144.432 70.0589L134.658 75.8739V87.247H154.658ZM154.658 105H134.658V138.101L163.96 122.705L154.658 105ZM156.681 93.4202V93.4294H196.681V93.4202H156.681ZM168.65 75.0469L167.378 75.7152L185.983 111.125L187.255 110.457L168.65 75.0469ZM157.953 52.0209V92.7519H197.953V52.0209H157.953ZM185.983 70.3942L187.255 69.7259L168.65 34.3159L167.378 34.9842L185.983 70.3942ZM156.681 52.642V52.6892H196.681V52.642H156.681ZM163.96 81.9176L185.983 70.347L167.378 34.9369L145.356 46.5076L163.96 81.9176ZM174.658 78.0888V64.2126H134.658V78.0888H174.658ZM164.884 95.2769L177.542 87.7461L157.091 53.3698L144.432 60.9007L164.884 95.2769ZM177.542 87.7461C175.095 89.2021 168.035 92.0773 160.213 87.6292C152.391 83.1811 151.252 75.6435 151.252 72.7958H191.252C191.252 67.4192 189.232 58.1161 179.986 52.858C170.739 47.6 161.711 50.6208 157.091 53.3698L177.542 87.7461ZM151.252 72.7958C151.252 69.7675 152.173 67.7833 152.714 66.833C153.254 65.8827 154.488 64.0764 157.091 62.528L177.542 96.9043C182.318 94.0629 185.52 90.0609 187.485 86.6059C189.449 83.1509 191.252 78.3531 191.252 72.7958H151.252ZM157.091 62.528L144.432 70.0589L164.884 104.435L177.542 96.9043L157.091 62.528ZM174.658 105V87.247H134.658V105H174.658ZM167.378 75.7244L145.356 87.295L163.96 122.705L185.983 111.134L167.378 75.7244Z" fill="#D6D3D1" mask="url(#path-3-inside-1_660_5382)"/>
</svg>
