<svg width="280" height="137" viewBox="0 0 280 137" fill="none" xmlns="http://www.w3.org/2000/svg">
<rect width="280" height="137" rx="20" fill="#F2F1FA"/>
<rect width="32" height="28.1966" transform="translate(124 54.4017)" fill="#F2F1FA"/>
<path d="M140.097 82.5958C135.409 82.5958 130.722 82.5958 126.034 82.5958C125.805 82.5958 125.573 82.5958 125.343 82.5721C124.169 82.4625 123.698 81.6719 124.198 80.603C124.632 79.6802 125.106 78.781 125.566 77.868C127.737 73.5693 129.909 69.2712 132.08 64.9737C132.147 64.8424 132.218 64.7112 132.295 64.5858C132.842 63.7094 133.731 63.586 134.43 64.342C134.924 64.8711 135.341 65.4652 135.782 66.0387C138.019 68.9622 140.256 71.8871 142.493 74.8132C143.47 76.0865 144.701 76.1555 145.849 75.0106C146.419 74.4421 146.975 73.8588 147.552 73.2952C148.591 72.2786 149.77 72.3398 150.619 73.5252C152.323 75.9039 153.984 78.3141 155.653 80.7165C155.784 80.905 155.883 81.1128 155.949 81.3324C156.111 81.8842 155.882 82.3283 155.322 82.4754C154.972 82.5594 154.611 82.5982 154.251 82.5908C149.535 82.5987 144.817 82.6004 140.097 82.5958Z" fill="#D4D2E3"/>
<path d="M150.609 59.0408C150.608 59.9583 150.335 60.8549 149.823 61.6167C149.312 62.3786 148.586 62.9714 147.737 63.3201C146.889 63.6689 145.955 63.7577 145.056 63.5755C144.157 63.3932 143.332 62.9481 142.686 62.2964C142.04 61.6448 141.602 60.816 141.428 59.9152C141.253 59.0144 141.35 58.0821 141.707 57.2365C142.063 56.3909 142.662 55.6701 143.428 55.1654C144.195 54.6608 145.093 54.395 146.011 54.4019C147.233 54.4174 148.399 54.9124 149.26 55.7802C150.12 56.6479 150.605 57.819 150.609 59.0408Z" fill="#D4D2E3"/>
</svg>
